<svg xmlns="http://www.w3.org/2000/svg" enable-background="new 0 0 24 24" viewBox="0 0 24 24" id="slack-hash">
  <path fill="#009688" d="m8.68 10.42c-1.349.44-2.63.86-3.699 1.21l-1.231-3.66 3.7-1.229z"></path>
  <path fill="#4caf50" d="m7.45 6.74-3.7 1.23-.84-2.51c-.32-1.02.21-2.13 1.23-2.46 1.03-.33 2.14.21 2.47 1.23z"></path>
  <path fill="#880e4f" d="m11.53 18.93c-1.351.44-2.62.86-3.7 1.21l-1.23-3.66 3.7-1.23z"></path>
  <path fill="#4caf50" d="M10.3 15.25l-3.7 1.23-1.62-4.85c1.069-.35 2.35-.77 3.699-1.21zM11.14 23.91c-1.14.33-2.14-.32-2.46-1.22l-.85-2.55c1.08-.35 2.35-.77 3.7-1.21l.84 2.52c.33 1.03-.2 2.13-1.23 2.46z"></path>
  <path fill="#008376" d="m5.598 7.356-1.848.614 1.23 3.66c.558-.183 1.173-.384 1.825-.598z"></path>
  <path fill="#429846" d="m4.166 2.992c-.009.003-.018.005-.026.008-1.02.33-1.55 1.44-1.23 2.46l.84 2.51 1.848-.614z"></path>
  <path fill="#760c45" d="m8.398 15.882-1.798.598 1.23 3.66c.548-.178 1.144-.373 1.775-.58z"></path>
  <path fill="#429846" d="M6.805 11.032c-.652.213-1.267.415-1.825.598l1.62 4.85 1.798-.598zM9.605 19.56c-.631.207-1.227.402-1.775.58l.849 2.55c.263.738.982 1.308 1.86 1.308.163 0 .331-.02.503-.061z"></path>
  <path fill="#689f38" d="m17.39 7.53c-1.03.34-2.31.77-3.7 1.23l-1.24-3.69 3.7-1.23z"></path>
  <path fill="#ffc107" d="m16.15 3.84-3.7 1.23-.84-2.51c-.32-1.03.21-2.13 1.229-2.46 1.03-.33 2.141.21 2.47 1.22z"></path>
  <path fill="#b71c1c" d="m20.24 16.03c-1.03.35-2.311.78-3.69 1.24l-1.24-3.69 3.7-1.23z"></path>
  <path fill="#ffc107" d="M19.01 12.35l-3.7 1.23-1.62-4.82c1.39-.46 2.67-.89 3.699-1.23zM19.85 21c-1.14.33-2.14-.32-2.46-1.22l-.84-2.51c1.38-.46 2.66-.89 3.69-1.24l.84 2.51c.33 1.03-.2 2.13-1.23 2.46z"></path>
  <path fill="#5b8a31" d="m14.231 4.478-1.781.592 1.24 3.69c.61-.202 1.199-.398 1.755-.583z"></path>
  <path fill="#dea806" d="m12.799.114c-.992.346-1.504 1.43-1.188 2.446l.84 2.51 1.781-.592z"></path>
  <path fill="#9f1818" d="m17.032 13.008-1.722.572 1.24 3.69c.587-.196 1.156-.386 1.695-.567z"></path>
  <path fill="#dea806" d="M15.446 8.176c-.556.186-1.145.382-1.756.584l1.619 4.82 1.722-.573zM18.245 16.703c-.539.181-1.108.371-1.695.567l.84 2.51c.263.738.981 1.307 1.86 1.307.137 0 .278-.014.421-.043z"></path>
  <g fill="#00bcd4">
    <path d="M3.75 7.97l1.23 3.66c-1.77.57-2.99.94-3.08.93-.78-.03-1.54-.54-1.801-1.32-.33-1.021.2-2.12 1.23-2.46zM12.45 5.07l1.24 3.69c-1.61.54-3.36 1.12-5.011 1.66l-1.229-3.68zM19.81 6.72s-.949.32-2.42.81l-1.24-3.69 2.43-.81c1.019-.33 2.13.21 2.47 1.23.32 1.02-.21 2.13-1.24 2.46z"></path>
  </g>
  <path fill="#00a4b9" d="M4.362 9.79l-4.277 1.404c.005.016.01.031.015.046.26.78 1.02 1.29 1.8 1.32h.004c.118 0 1.329-.367 3.076-.93zM13.075 6.93l-5.012 1.645.617 1.845c1.65-.54 3.4-1.12 5.011-1.66zM21.064 4.307l-4.284 1.406.61 1.816c1.471-.49 2.42-.81 2.42-.81 1.014-.324 1.544-1.405 1.254-2.412z"></path>
  <path fill="#e91e63" d="M6.6 16.48l1.23 3.66c-1.771.57-2.99.94-3.08.93-.78-.03-1.54-.54-1.8-1.32-.33-1.02.21-2.12 1.229-2.46zM15.31 13.58l1.24 3.69c-1.62.54-3.37 1.12-5.02 1.66l-1.23-3.68zM24 13.38c0 .82-.51 1.58-1.32 1.84 0 0-.96.32-2.44.81l-1.23-3.68 2.431-.81c1.02-.33 2.13.21 2.46 1.23.069.2.099.41.099.61z"></path>
  <path fill="#cb1a56" d="M7.221 18.328l-4.276 1.404.006.018c.26.78 1.02 1.29 1.8 1.32h.004c.119 0 1.329-.368 3.076-.93zM15.943 15.464l-5.02 1.648.608 1.818c1.649-.54 3.399-1.12 5.02-1.66zM23.924 12.844l-4.28 1.405.596 1.781c1.48-.49 2.44-.81 2.44-.81.81-.26 1.32-1.02 1.32-1.84 0-.175-.023-.359-.076-.536z"></path>
</svg>
